<?xml version="1.0" encoding="utf-8"?>
<!-- Generator: Adobe Illustrator 26.0.1, SVG Export Plug-In . SVG Version: 6.00 Build 0)  -->
<svg version="1.1" id="레이어_1" xmlns="http://www.w3.org/2000/svg" xmlns:xlink="http://www.w3.org/1999/xlink" x="0px"
	 y="0px" viewBox="0 0 489 139.6" style="enable-background:new 0 0 489 139.6;" xml:space="preserve">
<style type="text/css">
	.st0{fill:#FFFFFF;}
</style>
<path class="st0" d="M107.4,77.6l-9,15.5c2.2,3.8,25,42.8,27.2,46.6c6.4,0,47.4,0,53.7,0c-0.1-0.2-70.4-121.6-71.9-124.2
	C84.5,55.1,69.6,81.2,44.8,124.1H26.9c0,0,68.3-118.6,71.5-124.1H80.5C80.5,0,5.9,129.4,0,139.6c6.4,0,47.4,0,53.7,0
	c0,0,6.1-10.7,16.9-29.4c6.6,11.3,15.7,26.9,17.2,29.4c2.4,0,9.5,0,17.9,0c-7.2-12.3-18.8-32.3-26.2-44.9
	c7.8-13.6,17.2-29.8,27.8-48.2c3.7,6.5,41.3,71,45.1,77.6h-17.9C132.4,120.4,109.6,81.4,107.4,77.6z"/>
<g>
	<path class="st0" d="M201,49.3h-20.1l-3.5,11.4h-15.7L184-0.1h13.8l22.5,60.8h-15.7L201,49.3z M184.4,38h13.1l-6.6-21.1L184.4,38z"
		/>
	<path class="st0" d="M247.3,39.2h-7.9v21.5h-14.7V-0.1h23.9c7.2,0,12.8,1.6,16.9,4.8s6.1,7.7,6.1,13.6c0,4.2-0.9,7.7-2.6,10.5
		s-4.4,5-8,6.8l12.7,24.5v0.6H258L247.3,39.2z M239.3,27.9h9.3c2.8,0,4.9-0.7,6.3-2.2s2.1-3.5,2.1-6.1s-0.7-4.7-2.1-6.2
		s-3.5-2.2-6.3-2.2h-9.3L239.3,27.9L239.3,27.9z"/>
	<path class="st0" d="M318.2,34.9h-23v14.5h27.2v11.3h-41.9V-0.1h42v11.3h-27.3V24h23L318.2,34.9L318.2,34.9z"/>
	<path class="st0" d="M379.1,60.7h-14.6L343,22.9v37.8h-14.7V-0.1H343l21.5,37.8V-0.1h14.6V60.7L379.1,60.7z"/>
	<path class="st0" d="M423.7,49.3h-20.1l-3.5,11.4h-15.7l22.3-60.8h13.8L443,60.7h-15.7L423.7,49.3z M407.1,38h13.1l-6.6-21.1
		L407.1,38z"/>
</g>
<g>
	<path class="st0" d="M454.2,49.9c0-2,0.4-3.8,1.2-5.4c0.8-1.6,1.9-2.8,3.4-3.7s3.2-1.3,5.2-1.3c3.1,0,5.5,0.9,7.2,2.8
		c1.8,1.9,2.6,4.5,2.6,7.7v0.2c0,3.2-0.9,5.7-2.6,7.6c-1.8,1.9-4.2,2.8-7.2,2.8c-2.9,0-5.2-0.9-7-2.6c-1.8-1.7-2.7-4.1-2.8-7.1
		L454.2,49.9z M460.5,50.3c0,1.9,0.3,3.3,0.9,4.1s1.5,1.3,2.6,1.3c2.3,0,3.4-1.7,3.5-5.2v-0.6c0-3.7-1.2-5.5-3.5-5.5
		c-2.1,0-3.3,1.6-3.4,4.7L460.5,50.3z"/>
	<path class="st0" d="M478.1,60.3v-16h-3v-4.4h3v-1.6c0-2.3,0.7-4.1,2.1-5.4c1.4-1.3,3.3-1.9,5.8-1.9c0.9,0,1.9,0.1,3,0.4v4.7
		c-0.4-0.1-0.9-0.2-1.6-0.2c-1.9,0-2.9,0.8-2.9,2.5v1.5h4v4.4h-4v16H478.1z"/>
</g>
<g>
	<path class="st0" d="M250,127.5h-20.1l-3.5,11.4h-15.7L233,78h13.8l22.5,60.8h-15.7L250,127.5z M233.4,116.2h13.1l-6.6-21.1
		L233.4,116.2z"/>
	<path class="st0" d="M324.4,138.8h-14.6L288.3,101v37.8h-14.7V78h14.7l21.5,37.8V78h14.6V138.8z"/>
	<path class="st0" d="M383.5,131.3c-2.3,2.5-5.6,4.5-9.9,6.1c-4.3,1.5-9.1,2.3-14.3,2.3c-8,0-14.3-2.4-19.1-7.3
		c-4.8-4.9-7.3-11.7-7.6-20.3v-5.3c0-6,1.1-11.2,3.2-15.7s5.1-7.9,9.1-10.3c3.9-2.4,8.5-3.6,13.7-3.6c7.6,0,13.5,1.7,17.6,5.2
		c4.2,3.5,6.6,8.6,7.3,15.5h-14.1c-0.5-3.4-1.6-5.8-3.3-7.3c-1.7-1.4-4-2.2-7.1-2.2c-3.7,0-6.5,1.6-8.5,4.7s-3,7.6-3,13.4v3.7
		c0,6.1,1,10.6,3.1,13.7c2.1,3,5.3,4.6,9.8,4.6c3.8,0,6.7-0.8,8.5-2.5v-9.4h-10.2v-10.1h24.8V131.3z"/>
	<path class="st0" d="M429.7,113h-23v14.5h27.2v11.3H392V78h42v11.3h-27.3v12.8h23V113L429.7,113z"/>
	<path class="st0" d="M462.5,117.3h-7.9v21.5h-14.7V78h23.9c7.2,0,12.8,1.6,16.9,4.8c4.1,3.2,6.1,7.7,6.1,13.6
		c0,4.2-0.9,7.7-2.6,10.5s-4.4,5-8,6.8l12.7,24.5v0.6h-15.7L462.5,117.3z M454.5,106.1h9.3c2.8,0,4.9-0.7,6.3-2.2s2.1-3.5,2.1-6.1
		s-0.7-4.7-2.1-6.2s-3.5-2.2-6.3-2.2h-9.3V106.1z"/>
</g>
</svg>
